<?xml version="1.0" encoding="UTF-8" standalone="no"?>
<!DOCTYPE svg PUBLIC "-//W3C//DTD SVG 1.1//EN" "http://www.w3.org/Graphics/SVG/1.1/DTD/svg11.dtd">
<svg width="100%" height="100%" viewBox="0 0 309 215" version="1.1" xmlns="http://www.w3.org/2000/svg" xmlns:xlink="http://www.w3.org/1999/xlink" xml:space="preserve" xmlns:serif="http://www.serif.com/" style="fill-rule:evenodd;clip-rule:evenodd;stroke-linejoin:round;stroke-miterlimit:1.41421;">
    <g transform="matrix(0.205031,0,0,0.205031,-91.6487,-246.597)">
        <g transform="matrix(1.19007,0,0,1.19007,-340.037,-432.558)">
            <g transform="matrix(-2.48831,0.554647,0.554647,2.48831,2359.8,632.545)">
                <path d="M459,477C459,477 469.625,470.154 473,483C473,483 465.043,476.882 463,480C460.957,483.118 460,482 460,482L459,477Z" style="fill:rgb(62,62,62);"/>
                <path d="M397.692,495C397.692,495 389.047,493.932 389,502C389,502 395.774,496.959 400,500C404.226,503.041 403,498 403,498L397.692,495Z" style="fill:rgb(62,62,62);"/>
            </g>
            <g transform="matrix(-2.48831,0.554647,0.554647,2.48831,2359.8,632.545)">
                <path d="M444,482C444,482 448.059,482.376 452.799,481C457.539,479.624 459,476 459,476L463,482L456,487C456,487 444.913,492.542 439.826,490L437,491L435,496L427,494L422,495L410,499L403,502C403,502 398.692,499.277 398,499C397.308,498.723 398,494 398,494L407,491C407,491 425.077,485.522 427,481C428.923,476.478 436,461.5 436,461.5L444,441C444,441 453.006,425.425 451.632,424.373C450.258,423.321 462.072,425.761 462.072,425.761C462.072,425.761 453.914,436.495 452.324,444.143C452.324,444.143 439.726,471.05 439.826,474C439.826,474 439.233,482.983 444,482Z" style="fill:rgb(135,132,127);"/>
            </g>
        </g>
        <path d="M1631,1694C1631,1694 1584.58,1753.43 1572,1762C1559.42,1770.57 1458,1753.94 1458,1753.94L1477,1691L1492,1689C1492,1689 1583.7,1737.84 1631,1694Z" style="fill:rgb(169,153,110);"/>
        <path d="M1051,1879C1051,1879 1092.68,1883.77 1107,1878C1121.32,1872.24 1150,1856 1150,1856L1223,1823L1286,1787L1267,1762L1043,1849L1051,1879Z" style="fill:rgb(129,109,72);"/>
        <path d="M1580,1753.94C1580,1753.94 1473.74,1898.54 1299,1913L1230,1918C1230,1918 1220.45,1924.77 1211,1923C1201.55,1921.23 1206,1916 1206,1916C1206,1916 1195.08,1918.74 1190,1915C1184.92,1911.26 1192,1906 1192,1906C1192,1906 1179.34,1907.35 1173,1904C1166.66,1900.65 1173,1896 1173,1896C1173,1896 1165.34,1894.15 1163,1891C1160.66,1887.85 1164,1883 1164,1883L1157,1881L1138,1883L1141,1878L1114,1883L1117,1878L1107,1878L1192,1823L1264,1796L1332,1736L1454,1709L1475,1701L1482,1700C1482,1700 1472.97,1754.95 1495,1759C1495,1759 1517.55,1753.87 1525,1743C1525,1743 1535.53,1761.61 1550,1753.94C1550,1753.94 1566.05,1763.35 1580,1753.94" style="fill:rgb(196,170,122);"/>
        <path d="M1775,1247.25C1775,1247.25 1637.77,1147.08 1544,1247.25C1544,1247.25 1523.01,1266.66 1469,1385C1469,1385 1457.32,1422.32 1366,1460C1366,1460 1207.53,1507.95 1075,1669C1075,1669 1028.79,1721.44 1023,1731C1023,1731 972.791,1775.72 967,1779C967,1779 923.517,1802.49 922,1807L900,1820L906,1821L886,1838L897,1839C897,1839 825.549,1897.14 820,1903C820,1903 470.252,2191.8 453,2239L447,2248L459,2243L467,2247L483,2236L486,2250L498,2240C498,2240 846.237,1939 916,1908C916,1908 955.803,1897.55 969,1901C969,1901 997.779,1894.08 1005,1895C1012.22,1895.92 1031.69,1886.04 1031.69,1886.04C1033.92,1884.73 1054.11,1878.07 1060,1875C1065.89,1871.93 1190.62,1813.32 1200,1810C1200,1810 1288.42,1788.77 1313,1775C1313,1775 1397.34,1766.2 1451,1732C1451,1732 1488.59,1692.33 1503,1691L1689,1389L1775,1247.25Z" style="fill:rgb(120,107,85);"/>
        <path d="M1645,1402.49C1645,1402.49 1649.51,1391.36 1654,1386C1658.49,1380.64 1670,1392 1670,1392L1668,1425.97L1659,1433L1646,1416L1645,1402.49Z" style="fill:rgb(165,152,130);"/>
        <path d="M1787,1293C1787,1293 1727.09,1358.74 1714,1440C1714,1440 1650.86,1420.73 1653,1387C1653,1387 1705.96,1321.89 1720,1318C1720,1318 1744.24,1291.73 1787,1293Z" style="fill:rgb(205,193,172);"/>
        <path d="M1719.97,1317C1719.97,1317 1814.31,1255.08 1934,1313C1934,1313 1944.26,1311.91 1949,1316C1949,1316 1957.84,1319.69 1952,1307C1952,1307 1933.64,1280.99 1886,1260C1886,1260 1830.84,1243.61 1776,1248C1776,1248 1758.89,1254.01 1757,1262C1755.11,1269.99 1743.34,1272.72 1739,1277C1734.66,1281.28 1722.27,1307.92 1719.97,1317Z" style="fill:rgb(47,51,49);"/>
        <path d="M1767,1257C1767,1257 1781.42,1254.11 1782,1261C1782,1261 1766.73,1268.23 1767,1257Z" style="fill:rgb(151,147,126);"/>
        <path d="M1599,1251.87C1599,1251.87 1655.74,1219.02 1689,1247.94C1689,1247.94 1685.6,1256.89 1682.53,1259.84C1679.46,1262.8 1646.24,1252.49 1620,1266C1620,1266 1615.23,1259.86 1623.77,1251.87C1623.77,1251.87 1629.28,1248 1631,1247.94C1632.72,1247.88 1598.14,1251.2 1599,1251.87" style="fill:rgb(210,201,183);"/>
        <path d="M1638,1251.87C1638,1251.87 1676.85,1236.35 1682,1267C1682,1267 1687.37,1284.46 1664,1292.95C1664,1292.95 1623.65,1288.41 1638,1251.87Z" style="fill:rgb(141,133,133);"/>
        <path d="M1638,1259.84C1638,1259.84 1675.43,1234.58 1679,1274C1679,1274 1678.38,1287.39 1657,1288C1657,1288 1639.75,1286.41 1638,1259.84"/>
        <path d="M1659,1263C1659,1263 1665.3,1262.54 1664,1266C1662.7,1269.46 1660.55,1267.57 1660,1268C1659.45,1268.43 1657.51,1263.94 1659,1263Z" style="fill:rgb(245,240,230);"/>
        <path d="M1604,1270.45C1604,1270.45 1648.73,1309.73 1679,1297C1679,1297 1706.53,1291.41 1711,1292.95C1711,1292.95 1668.15,1329.4 1651,1355C1651,1355 1630.03,1377.18 1606,1376C1606,1376 1590.05,1375.59 1586,1373C1581.95,1370.41 1519.6,1357.23 1541,1307C1541,1307 1549.04,1273.73 1604,1270.45" style="fill:rgb(105,93,70);"/>
        <path d="M1634.91,1376.05C1634.91,1376.05 1691.05,1287.17 1730,1292.95C1730,1292.95 1702.77,1343.31 1664,1366C1664,1366 1639.12,1372.42 1634.91,1376.05" style="fill:rgb(210,201,183);"/>
        <g>
            <path d="M1682.46,1299L1677,1306L1673,1309L1669,1311L1664,1309L1661,1312L1659,1308C1659,1308 1653.19,1310.61 1649,1310C1644.81,1309.39 1648,1307 1648,1307C1648,1307 1634.93,1307.95 1634.91,1308C1634.89,1308.05 1634.91,1304 1634.91,1304L1623.77,1303L1628,1300L1616,1299L1610,1296L1623.77,1296C1623.77,1296 1594.88,1280.42 1592,1282.13C1589.12,1283.84 1607,1282.13 1607,1282.13L1598.98,1278L1616,1282.13C1616,1282.13 1631.5,1310.28 1682.46,1299" style="fill:rgb(162,151,132);"/>
            <path d="M1787,1292.95C1787,1292.95 1876.28,1276.41 1926,1308C1926,1308 1938.94,1312.4 1941,1312C1941,1312 1887.39,1263.85 1801,1272C1801,1272 1788.14,1272.87 1784,1274C1779.86,1275.13 1799.77,1284.98 1787,1292.95Z" style="fill:rgb(87,80,67);"/>
            <path d="M1577,1299C1577,1299 1607.11,1302.92 1611,1303C1614.89,1303.08 1615,1303 1615,1303L1615,1305C1615,1305 1626.85,1309.19 1635,1309C1635,1309 1640.19,1309.96 1638,1312.03C1638,1312.03 1627.27,1313.79 1623,1314L1617,1312.03C1617,1312.03 1610.73,1307.65 1609,1308C1609,1308 1575.29,1303.07 1577,1299Z" style="fill:rgb(162,151,132);"/>
            <path d="M1634,1320L1652.95,1312.03L1658,1314L1645,1321L1643,1319L1635,1322L1634,1320Z" style="fill:rgb(162,151,132);"/>
            <path d="M1607.74,1333C1607.74,1333 1633.49,1323.97 1638.54,1324C1643.59,1324.03 1644,1324 1644,1324C1644,1324 1644.51,1324.47 1641,1326C1637.49,1327.53 1631.83,1330.01 1628,1331C1624.17,1331.99 1621.22,1331.57 1618,1333C1614.78,1334.43 1610.2,1335.07 1607.74,1335C1605.28,1334.93 1607.74,1333 1607.74,1333Z" style="fill:rgb(162,151,132);"/>
            <path d="M1567,1314C1567,1314 1580.37,1309.2 1586,1309C1591.63,1308.8 1602,1310 1602,1310C1602,1310 1611.63,1312.07 1613,1312.03C1614.37,1311.98 1623.85,1316.09 1618,1317C1612.15,1317.91 1609.71,1316.84 1607.74,1317.01C1605.76,1317.18 1603.07,1313.16 1599,1314C1594.93,1314.84 1589.12,1313.08 1586,1314C1582.88,1314.92 1567,1314 1567,1314" style="fill:rgb(162,151,132);"/>
            <path d="M1644.03,1331C1644.03,1331 1638.34,1333.68 1636,1335.01C1633.66,1336.33 1634,1335.01 1634,1335.01C1634,1335.01 1640.13,1329.39 1644.03,1329.5C1647.92,1329.61 1644.03,1331 1644.03,1331Z" style="fill:rgb(162,151,132);"/>
            <path d="M1646,1346C1646,1346 1648.56,1342.28 1652,1341C1655.44,1339.72 1654.69,1342.36 1653,1344C1651.31,1345.64 1647.18,1348.24 1646,1346Z" style="fill:rgb(162,151,132);"/>
            <path d="M1653,1332.55C1656.24,1329.84 1655.51,1327.88 1658,1329.5C1660.49,1331.12 1658.89,1329.77 1657,1332.55C1655.11,1335.32 1653.57,1336.6 1652,1335.6C1650.43,1334.59 1649.76,1335.25 1653,1332.55Z" style="fill:rgb(162,151,132);"/>
            <path d="M1625.34,1342C1625.34,1342 1631.75,1336.97 1633.98,1338C1636.22,1339.03 1631.37,1342.86 1629,1343.77C1626.63,1344.67 1625.16,1341.51 1625.34,1342Z" style="fill:rgb(162,151,132);"/>
            <path d="M1595,1355C1595,1355 1622.68,1341.61 1623,1340.66C1623.32,1339.72 1627.93,1336.82 1618,1340.66C1608.07,1344.51 1596.36,1350.64 1595,1352C1593.64,1353.36 1595,1355 1595,1355Z" style="fill:rgb(162,151,132);"/>
            <path d="M1599,1332.55C1599,1332.55 1582.98,1340.21 1578,1340.89C1573.03,1341.58 1571.13,1344 1573,1345C1574.87,1346.01 1580.28,1344.61 1584,1343.93C1587.72,1343.26 1587,1343.77 1587,1343.77L1582,1346.87C1582,1346.87 1578.1,1350.34 1582,1350C1585.9,1349.66 1589,1349 1589,1349C1589,1349 1605.33,1341.42 1607,1340.89C1608.67,1340.38 1603,1337.86 1603,1337.86L1599,1332.55Z" style="fill:rgb(162,151,132);"/>
            <path d="M1597,1328.91C1597,1328.91 1607.29,1325.23 1609.37,1326C1611.45,1326.77 1609.37,1328.91 1609.37,1328.91C1609.37,1328.91 1607.61,1331.39 1602,1331C1596.39,1330.61 1597,1328.91 1597,1328.91Z" style="fill:rgb(162,151,132);"/>
            <path d="M1570,1322C1570,1322 1596.16,1318.58 1596.98,1322C1597.8,1325.42 1596.98,1325.89 1596.98,1325.89L1589.8,1325.89C1589.8,1325.89 1577.04,1326.25 1572.29,1325.89C1567.55,1325.54 1567,1325.89 1567,1325.89C1567,1325.89 1569.3,1322.36 1570,1322Z" style="fill:rgb(162,151,132);"/>
            <path d="M1552,1334C1553.73,1333.54 1558.29,1329.62 1562,1332.55C1565.71,1335.48 1562,1338.72 1562,1338.72C1562,1338.72 1560.68,1342.18 1554,1341.29C1547.32,1340.39 1544,1338.72 1544,1338.72C1544,1338.72 1550.27,1334.46 1552,1334Z" style="fill:rgb(162,151,132);"/>
            <path d="M1603.64,1366C1603.64,1366 1600.56,1366.96 1597.35,1370C1594.13,1373.04 1597.63,1373.14 1592,1374C1586.37,1374.86 1584.68,1374.83 1582.17,1374C1579.66,1373.17 1572.29,1371 1572.29,1371L1570,1368C1570,1368 1584.53,1362.05 1589.8,1361C1595.07,1359.95 1597.35,1357 1597.35,1357L1607.31,1356L1606,1360L1603.64,1366Z" style="fill:rgb(162,151,132);"/>
            <path d="M1550,1348C1558.36,1350.66 1560,1352 1560,1352C1560,1352 1565.48,1354.2 1567,1354C1568.52,1353.8 1576,1353 1576,1353C1576,1353 1579.41,1353.44 1576,1356C1572.59,1358.56 1568.03,1360.91 1567,1361C1565.97,1361.09 1564.83,1359.99 1562,1360C1559.17,1360.01 1551.96,1355.64 1549,1356C1546.04,1356.36 1547,1353 1547,1353C1547,1353 1549.28,1350.11 1544,1350C1538.72,1349.89 1536,1345 1536,1345L1541,1344L1550,1348" style="fill:rgb(162,151,132);"/>
            <path d="M1549,1323.27C1556.01,1322.09 1556.37,1322.69 1558,1323.27C1559.63,1323.84 1556.76,1326.05 1556.76,1326.05L1549,1326.05L1544,1327C1544,1327 1541.99,1324.44 1549,1323.27Z" style="fill:rgb(162,151,132);"/>
            <path d="M1581,1286C1581,1286 1591.35,1288.55 1594,1291C1596.65,1293.45 1595,1294 1595,1294C1595,1294 1579.82,1289.93 1580,1288C1580.18,1286.07 1581,1286 1581,1286" style="fill:rgb(162,151,132);"/>
            <path d="M1549,1309C1549,1309 1556.82,1305.39 1560,1307C1563.18,1308.61 1553.97,1313.61 1552,1313C1550.03,1312.39 1549,1309 1549,1309Z" style="fill:rgb(162,151,132);"/>
        </g>
        <path d="M1727,1258C1727,1258 1706.3,1257.78 1699,1256C1691.7,1254.22 1689,1257 1689,1257L1694,1260C1694,1260 1681.81,1265.98 1682.46,1269.94C1683.11,1273.89 1688.05,1283.79 1696,1282C1703.95,1280.21 1718.09,1273.06 1723,1266C1723,1266 1724.52,1258.39 1727,1258Z" style="fill:rgb(105,93,70);"/>
        <g transform="matrix(0.999008,-0.0445274,0.0445274,0.999008,-67.8524,75.1177)">
            <path d="M1652.95,1401C1652.95,1401 1625.26,1470.84 1587.75,1489C1550.24,1507.16 1472.72,1671.41 1488,1686C1503.28,1700.59 1581.06,1730.31 1618,1705C1654.94,1679.69 1712.91,1590.47 1709,1522C1709,1522 1707.77,1463.98 1719.97,1440C1719.97,1440 1646.2,1405.78 1652.95,1401" style="fill:rgb(134,121,97);"/>
        </g>
        <path d="M1514,1599C1514,1599 1494.67,1627.8 1486,1620C1477.33,1612.2 1464.88,1617.98 1460,1615C1455.12,1612.02 1437.1,1610.29 1434,1599C1430.9,1587.72 1410.32,1604.58 1404,1594C1397.68,1583.42 1386.52,1594.15 1379,1583C1371.48,1571.85 1359.93,1571.4 1359,1555L1359,1539C1359,1539 1332.41,1551.32 1331,1559C1331,1559 1307.18,1561.77 1307,1569C1307,1569 1288.97,1572.02 1287,1580C1287,1580 1233.18,1584.49 1225,1606.89C1215.08,1614.48 1252.26,1618.49 1253,1633C1281.53,1691.32 1348.5,1718.48 1444,1723C1444,1723 1481.65,1699.74 1498,1677C1505.6,1679.51 1525.6,1610.59 1514,1599Z" style="fill:rgb(116,102,80);"/>
        <g transform="matrix(0.948547,0,0,0.938796,54.3563,115.186)">
            <clipPath id="_clip1">
                <path d="M1775,1247.25C1775,1247.25 1637.77,1147.08 1544,1247.25C1544,1247.25 1523.01,1266.66 1469,1385C1469,1385 1457.32,1422.32 1366,1460C1366,1460 1207.53,1507.95 1075,1669C1075,1669 1028.79,1721.44 1023,1731C1023,1731 972.791,1775.72 967,1779C967,1779 923.517,1802.49 922,1807L900,1820L906,1821L886,1838L897,1839C897,1839 825.549,1897.14 820,1903C820,1903 470.252,2191.8 453,2239L447,2248L459,2243L467,2247L483,2236L486,2250L498,2240C498,2240 846.237,1939 916,1908C916,1908 955.803,1897.55 969,1901C969,1901 997.779,1894.08 1005,1895C1012.22,1895.92 1031.69,1886.04 1031.69,1886.04C1033.92,1884.73 1054.11,1878.07 1060,1875C1065.89,1871.93 1190.62,1813.32 1200,1810C1200,1810 1288.42,1788.77 1313,1775C1313,1775 1397.34,1766.2 1451,1732C1451,1732 1488.59,1692.33 1503,1691L1689,1389L1775,1247.25Z"/>
            </clipPath>
            <g clip-path="url(#_clip1)">
                <path d="M1478,1699C1478,1699 1394.34,1723.27 1400,1679C1400,1679 1350.49,1689.03 1322.87,1676.16C1313.26,1671.68 1306.3,1664.42 1305,1653C1305,1653 1275.94,1654.85 1283,1628C1283,1628 1253.89,1633.57 1268,1593C1268,1593 1233.53,1604.56 1236,1590C1238.47,1575.44 1171.96,1645.15 1170,1653C1170,1653 1094.3,1721.6 1104,1734C1104,1734 1073.62,1783.24 1082,1794C1082,1794 1088.62,1797.88 1092,1797C1092,1797 1079.87,1811.49 1086,1822C1086,1822 1051.6,1861.69 1057,1866L1064,1872L1127,1882L1484,1728L1478,1699Z" style="fill:rgb(109,96,70);"/>
            </g>
        </g>
        <path d="M1059,1875C1059,1875 1047.8,1887.96 1038,1889C1028.2,1890.04 1010.02,1895.15 1004,1892C997.98,1888.85 959.751,1904.47 952,1900C944.249,1895.53 942.257,1893.96 940,1892C940,1892 1028.15,1835.04 1032,1828C1032,1828 1045.89,1818.29 1051,1816C1051,1816 1054.74,1819.81 1060,1820C1065.26,1820.19 1068.66,1816.58 1070,1815C1071.34,1813.42 1082.58,1819.1 1085,1817C1087.42,1814.9 1087.82,1823.19 1086,1826C1084.18,1828.81 1064.84,1851.49 1062,1853C1059.16,1854.51 1054,1862 1054,1862C1054,1862 1061.08,1873.14 1059,1875Z" style="fill:rgb(154,132,91);"/>
        <path d="M1217,1614C1229.18,1605.36 1262.9,1606.35 1261,1608C1254.49,1613.67 1164.7,1654.76 1173,1656C1173,1656 1164.18,1665.16 1181,1665C1181,1665 1125.73,1705.77 1145,1711C1145,1711 1118.96,1728.3 1132,1729C1132,1729 1155.88,1723.87 1167,1715C1167,1715 1103.42,1779.9 1118,1775C1118,1775 1132.17,1770.2 1137,1767C1137,1767 1112.97,1794.45 1126,1791L1143,1784C1143,1784 1098.8,1812.76 1113,1810C1113,1810 1108.25,1817.05 1120,1814C1120,1814 1110.75,1823.08 1123,1819C1123,1819 1128.15,1825.94 1139,1819C1139,1819 1089.91,1836.25 1096,1840C1096,1840 1082.29,1846.15 1087,1847C1087,1847 1067.8,1855.68 1076,1856C1076,1856 1066.95,1864.28 1062,1865C1057.05,1865.72 1042.96,1869.74 1070,1842C1070,1842 1083.82,1828.85 1085,1827C1086.18,1825.15 1086.93,1821.34 1089,1820C1091.07,1818.66 1079.93,1818.86 1091,1797C1091,1797 1060.45,1797.47 1105,1741C1105,1741 1082.45,1730.53 1168,1654C1168,1654 1199.42,1622.79 1212,1617" style="fill:rgb(97,87,60);"/>
        <path d="M1662,1412C1662,1412 1711.14,1395.48 1714.54,1406C1717.93,1416.52 1718.34,1424.55 1714.54,1439C1714.54,1439 1701.61,1446.7 1700,1449C1698.39,1451.3 1671.8,1445.54 1662,1412Z" style="fill:rgb(196,185,166);"/>
        <clipPath id="_clip2">
            <path d="M1645.84,1401.13C1645.84,1401.13 1621.29,1472.13 1584.63,1491.94C1547.96,1511.76 1477.83,1679.29 1493.75,1693.19C1509.66,1707.08 1588.69,1733.31 1624.46,1706.38C1660.24,1679.45 1714.18,1587.74 1707.22,1519.51C1707.22,1519.51 1703.41,1461.61 1714.54,1437.1C1714.54,1437.1 1639.31,1406.2 1645.84,1401.13"/>
        </clipPath>
        <g clip-path="url(#_clip2)">
            <path d="M1661,1409C1661,1409 1670.47,1473.15 1666,1497C1661.53,1520.85 1663.57,1530.82 1656,1544C1648.43,1557.18 1629.52,1593.65 1630,1604C1630.48,1614.35 1608.99,1694.9 1621,1705C1633.01,1715.1 1644,1718.05 1644,1718.05L1750,1468L1729,1434L1661,1409Z" style="fill:rgb(196,185,166);"/>
        </g>
        <g transform="matrix(1.08126,-0.0767018,0.0767018,1.08126,-291.997,-102.755)">
            <g transform="matrix(-2.48831,0.554647,0.554647,2.48831,2359.8,632.545)">
                <path d="M515.54,423.807C515.54,423.807 505.736,478.866 502.118,482.572C498.5,486.278 495.757,489 495.757,489L482,493L465,495L459,495L459,502L486,498L486,502L495.757,500L506,496C506,496 510.414,493.268 515,493C519.586,492.732 534,489 534,489L543,486L538,478L523,481L517,481C517,481 513.03,479.867 516,471C518.97,462.133 525,441 525,441L529,427L530,421L515.54,423.807Z" style="fill:rgb(165,152,130);"/>
            </g>
            <g transform="matrix(0.920213,0.0652772,-0.0652772,0.920213,261.992,113.617)">
                <path d="M1240.16,1908L1237.49,1934L1267,1934L1286,1905L1240.16,1908Z" style="fill:rgb(165,152,130);"/>
            </g>
            <g transform="matrix(-2.48831,0.554647,0.554647,2.48831,2359.8,632.545)">
                <path d="M459,494.953C459,494.953 442.176,495.267 442,502C442,502 455.936,497.079 460,502L463,498.477L459,494.953" style="fill:rgb(77,77,77);"/>
            </g>
            <g transform="matrix(-2.48831,0.554647,0.554647,2.48831,2359.8,632.545)">
                <path d="M539,479.089C539,479.089 555.462,477.668 557,487C557,487 546.659,480.796 542,483C537.341,485.204 537,485 537,485L539,479.089Z" style="fill:rgb(77,77,77);"/>
            </g>
        </g>
        <path d="M1301,1891C1301,1891 1285.38,1936.81 1282,1938C1273.93,1940.84 1228.14,1919.45 1226,1905C1226,1905 1227.23,1875.03 1230,1869C1232.77,1862.97 1280.9,1901.57 1301,1891Z" style="fill:rgb(196,170,122);"/>
    </g>
</svg>
