<?xml version="1.0" encoding="UTF-8" standalone="no"?>
<!DOCTYPE svg PUBLIC "-//W3C//DTD SVG 1.1//EN" "http://www.w3.org/Graphics/SVG/1.1/DTD/svg11.dtd">
<svg width="100%" height="100%" viewBox="0 0 243 220" version="1.1" xmlns="http://www.w3.org/2000/svg" xmlns:xlink="http://www.w3.org/1999/xlink" xml:space="preserve" xmlns:serif="http://www.serif.com/" style="fill-rule:evenodd;clip-rule:evenodd;stroke-linejoin:round;stroke-miterlimit:1.41421;">
    <g transform="matrix(0.285484,0,0,0.285484,-217.989,-394.694)">
        <g transform="matrix(-1.57085,0.404655,0.436214,1.69336,1786.47,895.617)">
            <path d="M459,494.953C459,494.953 442.176,495.267 442,502C442,502 455.936,497.079 460,502L463,498.477L459,494.953" style="fill:rgb(62,62,62);"/>
            <path d="M539,479.089C539,479.089 555.462,477.668 557,487C557,487 546.659,480.796 542,483C537.341,485.204 537,485 537,485L539,479.089Z" style="fill:rgb(62,62,62);"/>
            <path d="M520,424C520,424 508.618,478.294 505,482C501.382,485.706 495.757,489 495.757,489L482,493L465,495L459,495L459,502L486,498L486,502L495.757,500L506,496C506,496 510.414,493.268 515,493C519.586,492.732 534,489 534,489L543,486L538,478L523,481L517,481C517,481 513.03,479.867 516,471C518.97,462.133 525,441 525,441L529,427L530,421L520,424Z" style="fill:rgb(66,62,62);"/>
            <g transform="matrix(-0.535986,0.128083,0.138072,0.497209,848.729,-638.162)">
                <path d="M1078,1821L1063,1851L1078,1865L1096,1866L1093,1851C1093,1851 1100.7,1844.25 1100,1835C1099.3,1825.75 1096,1816 1096,1816C1096,1816 1083.2,1821.38 1078,1821Z" style="fill:rgb(66,62,62);"/>
            </g>
        </g>
        <path d="M1272,1475.27C1272,1475.27 1268.91,1491.07 1250,1497C1231.09,1502.93 1252,1517 1252,1517L1306,1510L1302,1489L1272,1475.27Z" style="fill:rgb(157,145,154);"/>
        <path d="M890,1967L922,1943L918,1973L890,1999L880,1999L890,1967Z" style="fill:rgb(126,107,88);"/>
        <path d="M999,1786.87L1023,1753L1040,1759L1006,1832L980,1827L999,1786.87Z" style="fill:rgb(126,107,88);"/>
        <path d="M1545,1503C1545,1503 1502.52,1555.53 1498,1573C1498,1573 1483.14,1598.11 1483,1609L1472,1607C1472,1607 1450.7,1665.06 1442,1676L1436,1683L1432,1679C1432,1679 1394.11,1735.61 1381,1742C1381,1742 1359.79,1759.11 1349,1776C1349,1776 1324.58,1794.66 1317,1799C1309.42,1803.34 1280.99,1818.88 1272,1825C1263.01,1831.12 1243.69,1850.13 1232,1855L1216,1854C1216,1854 1173.63,1871.75 1145,1867C1145,1867 1111.7,1874.15 1079,1873C1079,1873 1051.98,1883.44 1034,1882C1034,1882 971.278,1909.27 941,1955C941,1955 907.388,1987.8 890,1999L916,1960L892,1960L978,1799L1081,1663L1321,1497L1401,1490L1545,1503Z" style="fill:rgb(220,201,169);"/>
        <path d="M1094,1707C1094,1707 1120.28,1724.57 1114,1738C1107.72,1751.43 1102,1762 1102,1762L1082,1835C1082,1835 1084.41,1855.06 1068,1862C1051.59,1868.94 1024.62,1883.62 1014,1881C1003.38,1878.38 1001,1866 1001,1866C1001,1866 995.187,1831.81 988,1818C980.813,1804.19 983,1789 983,1789L1023,1734L1094,1707Z" style="fill:rgb(211,191,126);"/>
        <path d="M1452,1625L1446,1692L1430,1680L1396,1747L1388,1735C1388,1735 1365.95,1735.33 1359,1735C1359,1735 1351.65,1751.71 1341,1753.94C1330.35,1756.17 1323,1753.94 1323,1753.94L1309,1753C1309,1753 1289.88,1761.76 1286,1759C1282.12,1756.24 1282,1753.94 1282,1753.94L1285,1742C1285,1742 1199.35,1764.55 1180,1753.94C1160.65,1743.33 1161,1743 1161,1743L1168,1736C1168,1736 1148.91,1737.97 1143,1735C1137.09,1732.03 1151,1730 1151,1730C1151,1730 1132.11,1725.32 1132,1723C1131.89,1720.68 1140,1717 1140,1717L1116,1691L1128,1659L1240.16,1600L1250,1628C1250,1628 1321.1,1618.73 1333,1621C1344.9,1623.27 1345,1623 1345,1623L1358,1616L1350,1611L1369,1603L1364,1598L1392,1583L1382,1577L1410,1575L1410,1588L1416,1588L1414,1597L1422,1598L1422,1609L1430,1607L1429,1615C1429,1615 1449.12,1627.18 1452,1625" style="fill:rgb(232,219,199);"/>
        <path d="M913,1858C913,1858 828.078,1905.69 819,1899C819,1899 807.56,1895.51 835,1875L913,1858Z" style="fill:rgb(107,98,93);"/>
        <path d="M933,1797C933,1797 910.484,1840.59 853,1851C853,1851 829.837,1865.99 824,1874C824,1874 815.938,1883.46 818,1884C820.062,1884.54 814.878,1891.09 945,1853L1016,1789L1036,1747L983,1746L933,1797Z" style="fill:rgb(79,62,53);"/>
        <path d="M938,1958C938,1958 837.264,2091.19 826,2113C826,2113 800.129,2147.15 795,2149L787,2150C787,2150 786.445,2142.51 789,2140C789,2140 777.749,2148.72 777,2145C777,2145 777.112,2134.47 779,2130C779,2130 765.904,2136.03 765,2132C765,2132 766.56,2122.78 768,2122C768,2122 759.558,2125.33 766,2114C766,2114 785.659,2081.7 788,2080C790.341,2078.3 892.69,1936.1 911,1914C911,1914 927.58,1873.21 943,1855C943,1855 965.93,1800.22 996,1761L1034,1738L1048,1734C1048,1734 1010.54,1784.74 1006,1793C1006,1793 990.25,1798.42 988,1817L972,1841L966,1848L975,1849L958,1878L946,1897C946,1897 889.508,1982.8 889,1992C889,1992 884.239,2007.51 938,1958Z" style="fill:rgb(122,106,106);"/>
        <path d="M1265,1490C1265,1490 1351.4,1517.79 1347,1529C1342.6,1540.21 1283.02,1635.8 1207,1654C1207,1654 1162.19,1675.36 1141,1681C1141,1681 971.709,1788.18 922,1806C922,1806 833.935,1863.6 822,1867C822,1867 809.929,1872.47 819,1864C819,1864 838.446,1852.84 843,1847C843,1847 898.822,1801.54 902,1797C905.178,1792.46 1012.75,1654.58 1076,1626C1076,1626 1087.22,1552.67 1265,1490Z" style="fill:rgb(112,92,104);"/>
        <path d="M1545,1467C1545,1467 1515.03,1411.12 1462,1390C1462,1390 1432.01,1375.45 1397,1387C1397,1387 1314.05,1399.94 1267,1485C1267,1485 1325.21,1522.86 1355,1533C1355,1533 1391.37,1562.86 1392,1568C1392,1568 1402.33,1563.96 1409,1564L1417,1560L1427,1563L1435,1554C1435,1554 1446.53,1556.77 1447,1560C1447.47,1563.23 1462,1548 1462,1548C1462,1548 1469.58,1543.23 1471,1547C1472.42,1550.77 1480.91,1541.61 1481,1542C1481.09,1542.39 1488,1532 1488,1532L1495,1522L1504,1518L1506,1523L1514,1514L1521,1514L1525,1510L1532,1514L1545,1506L1549,1498L1545,1467Z" style="fill:rgb(127,118,125);"/>
        <path d="M1543,1466C1543,1466 1605.49,1474.85 1612,1497C1612,1497 1586.16,1507.22 1544,1503C1544,1503 1515.06,1498.97 1512,1497C1508.94,1495.03 1505,1488 1505,1488L1505,1484C1505,1484 1538.52,1483.62 1543,1466Z" style="fill:rgb(32,26,36);"/>
        <g transform="matrix(1,0,0,1,-2,-1)">
            <path d="M1507,1488C1507,1488 1569.82,1490.97 1567,1478C1567,1478 1601.54,1488.08 1610,1498L1613,1500L1612,1493C1612,1493 1593.28,1464.13 1547,1468L1537,1476L1528,1482C1528,1482 1511.45,1488.74 1507,1488Z" style="fill:rgb(79,74,95);"/>
        </g>
        <path d="M1545,1466C1545,1466 1538.12,1454.7 1535,1453C1535,1453 1533.41,1466.58 1528,1466C1522.59,1465.42 1525,1457 1525,1457L1520,1463L1519,1456L1514,1453L1511,1460C1511,1460 1500.02,1447.43 1497,1447C1497,1447 1495.28,1454.62 1490,1454L1476,1450L1464,1442L1462,1445C1462,1445 1432.03,1430.12 1408,1456L1404,1462C1404,1462 1412.71,1486.48 1441,1493L1437,1496C1437,1496 1453.81,1506.66 1473,1485.01L1465,1477C1465,1477 1456.18,1488.38 1444,1487C1444,1487 1423.33,1482.07 1422,1473C1422,1473 1416.37,1466.21 1426,1456C1426,1456 1439.21,1441.33 1468,1460L1467,1466C1467,1466 1470.65,1469.26 1484,1466.64C1484,1466.64 1486.52,1475.54 1495,1475.27C1495,1475.27 1499.5,1471.4 1501,1471C1502.5,1470.6 1507.57,1480.14 1505,1482.82C1502.43,1485.5 1505,1485.01 1505,1485.01C1505,1485.01 1542.71,1482.83 1545,1466Z" style="fill:rgb(171,156,148);"/>
        <path d="M1426,1464C1426,1464 1436.15,1440.03 1462,1461C1462,1461 1464.42,1470.55 1460,1475C1460,1475 1447.37,1488.5 1432,1478C1432,1478 1424.82,1471.23 1426,1464Z"/>
        <path d="M1432,1459C1432,1459 1438.88,1463.7 1451,1461C1451,1461 1452.4,1456.91 1448,1455C1448,1455 1431.19,1453.68 1432,1459Z" style="fill:rgb(82,68,113);"/>
        <path d="M1019,1782C1019,1782 1052.47,1773.62 1066,1770C1079.53,1766.38 1108,1749 1108,1749L1129,1738C1129,1738 1148.74,1731.77 1148,1747C1147.27,1762.23 1124.52,1792.2 1122,1795C1119.48,1797.8 1112.18,1814.39 1109,1821C1105.82,1827.61 1096.59,1836.81 1093,1837C1089.41,1837.19 1068,1834 1068,1834C1068,1834 1041.2,1828.02 1036,1825C1030.8,1821.98 1023.06,1815.64 1021,1811C1018.94,1806.36 1012,1790 1012,1790C1012,1790 1013.21,1784.69 1019,1782" style="fill:rgb(188,156,109);"/>
        <g transform="matrix(-1.74962,0.450707,0.485858,1.88607,1795.01,821.09)">
            <path d="M459,494.953C459,494.953 442.176,495.267 442,502C442,502 455.936,497.079 460,502L463,498.477L459,494.953" style="fill:rgb(62,62,62);"/>
            <path d="M539,479.089C539,479.089 555.462,477.668 557,487C557,487 546.659,480.796 542,483C537.341,485.204 537,485 537,485L539,479.089Z" style="fill:rgb(62,62,62);"/>
            <path d="M520,424C520,424 508.618,478.294 505,482C501.382,485.706 495.757,489 495.757,489L482,493L465,495L459,495L459,502L486,498L486,502L495.757,500L506,496C506,496 510.414,493.268 515,493C519.586,492.732 534,489 534,489L543,486L538,478L523,481L517,481C517,481 513.03,479.867 516,471C518.97,462.133 525,441 525,441L529,427L530,421L520,424Z" style="fill:rgb(66,62,62);"/>
            <g transform="matrix(-0.535986,0.128083,0.138072,0.497209,848.729,-638.162)">
                <path d="M1078,1821L1063,1851L1078,1865L1096,1866L1093,1851C1093,1851 1100.7,1844.25 1100,1835C1099.3,1825.75 1096,1816 1096,1816C1096,1816 1083.2,1821.38 1078,1821Z" style="fill:rgb(66,62,62);"/>
            </g>
        </g>
    </g>
</svg>
